<svg width="512" height="512" viewBox="0 0 512 512" fill="none" xmlns="http://www.w3.org/2000/svg">
<rect width="512" height="512" rx="32" fill="#5DBCF7"/>
<path d="M202.805 88.1039C202.805 78.005 210.992 69.8182 221.091 69.8182H290.909C301.008 69.8182 309.195 78.005 309.195 88.1039V423.896C309.195 433.995 301.008 442.182 290.909 442.182H221.091C210.992 442.182 202.805 433.995 202.805 423.896V88.1039Z" fill="white"/>
<path d="M88.1038 309.195C78.0049 309.195 69.8181 301.008 69.8181 290.909V221.091C69.8181 210.992 78.0049 202.805 88.1038 202.805H423.896C433.995 202.805 442.182 210.992 442.182 221.091V290.909C442.182 301.008 433.995 309.195 423.896 309.195H88.1038Z" fill="white"/>
</svg>
